<svg xmlns="http://www.w3.org/2000/svg" viewBox="0 0 320 320" width="320" height="320" role="img" aria-label="Agência Lobo & Co">
  <!-- Emblema quadrado (agencia.md): fundo transparente para assentar sobre a seção escura -->
  <rect x="12" y="12" width="296" height="296" rx="60" fill="none" stroke="#FFFFFF" stroke-width="7" opacity="0.9"/>
  <text x="160" y="70" text-anchor="middle" fill="#FFFFFF" font-family="Poppins, Arial, sans-serif" font-weight="700" font-size="26" letter-spacing="5">AGÊNCIA</text>
  <g transform="translate(160,168) scale(0.42) translate(-256,-256)">
    <path fill="#FFFFFF" d="M150 150 L210 208 L256 176 L302 208 L362 150 L348 268 L396 306 L330 326 L300 366 L256 404 L212 366 L182 326 L116 306 L164 268 Z"/>
    <g fill="#0E1217">
      <path d="M196 250 L244 264 L200 278 Z"/>
      <path d="M316 250 L268 264 L312 278 Z"/>
      <path d="M256 300 L238 344 L256 360 L274 344 Z"/>
    </g>
  </g>
  <text x="160" y="292" text-anchor="middle" fill="#FFFFFF" font-family="Poppins, Arial, sans-serif" font-weight="800" font-size="30" letter-spacing="3">LOBO &amp; CO</text>
</svg>
