<svg xmlns="http://www.w3.org/2000/svg" viewBox="0 0 1200 630" width="1200" height="630" role="img" aria-label="Agência Lobo & Co - Transformamos ideias em resultados palpáveis">
  <defs>
    <radialGradient id="glow" cx="18%" cy="20%" r="60%">
      <stop offset="0%" stop-color="#F2A007" stop-opacity="0.28"/>
      <stop offset="70%" stop-color="#F2A007" stop-opacity="0"/>
    </radialGradient>
  </defs>

  <rect width="1200" height="630" fill="#0E1217"/>
  <rect width="1200" height="630" fill="url(#glow)"/>

  <!-- Emblema (lobo tribal, positiva/branca) -->
  <g transform="translate(120,175)">
    <rect x="0" y="0" width="280" height="280" rx="54" fill="none" stroke="#FFFFFF" stroke-width="6" opacity="0.9"/>
    <g transform="translate(140,140) scale(0.42) translate(-256,-256)">
      <path fill="#FFFFFF" d="M150 150 L210 208 L256 176 L302 208 L362 150 L348 268 L396 306 L330 326 L300 366 L256 404 L212 366 L182 326 L116 306 L164 268 Z"/>
      <g fill="#0E1217">
        <path d="M196 250 L244 264 L200 278 Z"/>
        <path d="M316 250 L268 264 L312 278 Z"/>
        <path d="M256 300 L238 344 L256 360 L274 344 Z"/>
      </g>
    </g>
    <text x="140" y="34" text-anchor="middle" fill="#FFFFFF" font-family="Poppins, Arial, sans-serif" font-weight="700" font-size="22" letter-spacing="6">AGÊNCIA</text>
    <text x="140" y="262" text-anchor="middle" fill="#FFFFFF" font-family="Poppins, Arial, sans-serif" font-weight="800" font-size="26" letter-spacing="3">LOBO &amp; CO</text>
  </g>

  <!-- Wordmark + tagline -->
  <g transform="translate(470,0)">
    <text x="0" y="250" fill="#F2A007" font-family="Poppins, Arial, sans-serif" font-weight="600" font-size="30" letter-spacing="10">AGÊNCIA</text>
    <text x="-4" y="340" fill="#FFFFFF" font-family="Poppins, Arial, sans-serif" font-weight="900" font-size="96" letter-spacing="-2">LOBO &amp; CO</text>
    <rect x="0" y="372" width="96" height="6" rx="3" fill="#F2A007"/>
    <text x="0" y="428" fill="#A9B6C2" font-family="Poppins, Arial, sans-serif" font-weight="500" font-size="30">Transformamos ideias em</text>
    <text x="0" y="470" fill="#A9B6C2" font-family="Poppins, Arial, sans-serif" font-weight="500" font-size="30">resultados palpáveis.</text>
  </g>
</svg>
